<?xml version="1.0" encoding="utf-8"?>
<!-- Generator: Adobe Illustrator 20.0.0, SVG Export Plug-In . SVG Version: 6.00 Build 0)  -->
<svg version="1.1" id="Layer_1" xmlns="http://www.w3.org/2000/svg" xmlns:xlink="http://www.w3.org/1999/xlink" x="0px" y="0px"
	 viewBox="0 0 100 100" style="enable-background:new 0 0 100 100;" xml:space="preserve">
<style type="text/css">
	.st0{fill:#FFFFFF;}
</style>
<path class="st0" d="M93.1,31.9c-0.1-0.2-0.1-0.5-0.2-0.7C93.5,31.3,93.8,31.5,93.1,31.9z"/>
<path class="st0" d="M88.5,43.2c0,0.1,0,0.2,0,0.2c0,7.5,0,15,0,22.5c0,0.1,0,0.2,0,0.2c-1,0-1.9,0-2.9,0c0-7.6,0-15.3,0-22.9
	C86.5,43.2,87.5,43.2,88.5,43.2z"/>
<path class="st0" d="M81.9,66.1c0-0.1,0-0.2,0-0.2c0-7.5,0-14.9,0-22.4c0-0.1,0-0.2,0-0.2c1,0,1.9,0,2.9,0c0,0.1,0,0.2,0,0.2
	c0,7.5,0,15,0,22.5c0,0.1,0,0.2,0,0.2C83.8,66.1,82.9,66.1,81.9,66.1z"/>
<path class="st0" d="M19.1,43.2c0,0.1,0,0.2,0,0.2c0,7.5,0,14.9,0,22.4c0,0.1,0,0.2,0,0.2c-1,0-1.9,0-2.9,0c0-0.1,0-0.2,0-0.2
	c0-7.5,0-15,0-22.5c0-0.1,0-0.2,0-0.2C17.2,43.2,18.2,43.2,19.1,43.2z"/>
<path class="st0" d="M12.6,66.1c0-0.1,0-0.2,0-0.2c0-7.5,0-15,0-22.5c0-0.1,0-0.2,0-0.2c1,0,1.9,0,2.9,0c0,1.5,0,3.1,0,4.6
	c0,6.1,0,12.2,0,18.3C14.5,66.1,13.5,66.1,12.6,66.1z"/>
<path class="st0" d="M0.9,53.4c1.2,0,2.4,0,3.7,0c0,0.8,0,1.6,0,2.5c-1.2,0-2.4,0-3.7,0C0.9,55,0.9,54.2,0.9,53.4z"/>
<path class="st0" d="M100.2,55.8c-1.2,0-2.4,0-3.7,0c0-0.8,0-1.6,0-2.5c1.2,0,2.4,0,3.7,0C100.2,54.2,100.2,55,100.2,55.8z"/>
<path class="st0" d="M81.1,53.4c0,0.8,0,1.6,0,2.5c-20.4,0-40.8,0-61.1,0c0-0.8,0-1.6,0-2.5C40.3,53.4,60.7,53.4,81.1,53.4z"/>
<path class="st0" d="M92.1,63.7c-0.9,0-1.9,0-2.8,0c0-6.1,0-12.1,0-18.2c0.9,0,1.9,0,2.8,0C92.1,51.6,92.1,57.6,92.1,63.7z"/>
<path class="st0" d="M95.7,61.3c-0.9,0-1.9,0-2.8,0c0-4.5,0-9,0-13.5c0.9,0,1.9,0,2.8,0C95.7,52.4,95.7,56.8,95.7,61.3z"/>
<path class="st0" d="M11.8,45.5c0,6,0,12.1,0,18.1c-0.9,0-1.9,0-2.8,0c0-6,0-12.1,0-18.1C9.9,45.5,10.8,45.5,11.8,45.5z"/>
<path class="st0" d="M8.1,61.3c-0.9,0-1.9,0-2.8,0c0-4.5,0-9,0-13.5c0.9,0,1.9,0,2.8,0C8.1,52.4,8.1,56.8,8.1,61.3z"/>
</svg>
