<?xml version="1.0" encoding="utf-8"?>
<!-- Generator: Adobe Illustrator 20.0.0, SVG Export Plug-In . SVG Version: 6.00 Build 0)  -->
<svg version="1.1" id="Layer_1" xmlns="http://www.w3.org/2000/svg" xmlns:xlink="http://www.w3.org/1999/xlink" x="0px" y="0px"
	 viewBox="0 0 100 100" style="enable-background:new 0 0 100 100;" xml:space="preserve">
<style type="text/css">
	.st0{fill:#FFFFFF;}
</style>
<path class="st0" d="M35.3,86.8c-2.4-0.8-4.3-2.4-6.3-3.9c0-1.3-0.1-2.5-1.5-3.1c0-0.6-0.3-0.9-0.9-1c-0.4-1-1.9-1-1.9-2.3
	c-0.2-1.2,2.1-1.8,1.1-3c-1.3-1.5-1.4-3.8-3.4-4.7c-0.6-0.2-0.4-0.9-0.4-1.5c-0.3-4.1-0.3-4.1-4.3-4c-0.7-1-0.5-2.2-0.9-3.3
	c0.6,0.2,1.2,0.3,1.8,0.5c1,0.3,1.7,0.2,1.5-1.2c-0.1-0.5-0.6-1.1,0-1.5c0.7-0.4,1.1,0.3,1.4,0.8c0.5,0.9,1.3,1.1,2.2,0.6
	c1-0.7,0.3-1.5-0.2-2.2c-1-1.5-3-2.8-0.8-4.8c0.1-0.1,0-0.3,0-0.4c-0.6-3.4,0.4-6.7,0.4-10.1c0-1.5,0.2-2.7,1.3-4
	c0.8-1,1.7-2.9,0.5-4.7c-0.9-1.4-0.5-2.9,0.3-4.3c1.7-1.3,2.9-2.9,3.7-4.9c0.3-0.7,0.9-1.5,1.5-0.9c1.4,1.3,2.2,0.2,2.9-0.6
	c1.1-1.3,2.7-1.4,4-2.2c1-0.6,1.5,0.7,2.6,0.2c2.4-1.3,5-1.5,7.7-1.4c1,0.1,2,0.3,2.9-0.4c0.1,0,0.3,0,0.4,0.1c0,0.4,0,0.8,0,1.3
	c-1.5,0.6-3.1,0.6-4.6,0.5c-3.7-0.4-4.7,0.2-6,3.9c-0.1,0.4-0.1,0.8-0.6,0.8c-2.3-0.4-4.2,0.9-6.3,1.4c-1.6,0.4-2.9,0.5-2.1,2.7
	c0.5,1.2-1,2.5,0,3.6c1.4,1.5,0.9,3,0.4,4.7c-0.5,2,0.4,4-0.2,6.1c-0.1,0.4,1.2,0.8,1,1.6c-0.7,3.4,1.3,6.7,0.2,10.1
	c-0.1,0.2,0.1,0.5,0.2,0.6c1.5,0.5,1,1.9,0.5,2.5c-1.6,2-2.7,4-1,6.5c0,0,0,0.1,0,0.2c-0.7,4.4,1,8.2,4.7,10.4c1.5,0.9,3,1.9,4,3.5
	c1.4,2.4,4.5,1.3,6.2,3.2c0,0,0.2,0,0.2-0.1c3.2-1.8,5.8,0.7,8.6,1.5c1.6,0.4,3.2,1.6,4.7,1.8c3.5,0.6,7,1.8,10.7,1.2
	c-0.3,0.5-0.7,0.8-1.3,0.9c-4.5,0.7-9,0.8-13.5,0.2c-2.7-0.4-5.5-0.3-8,0.2c-3.9,0.9-7.3,0.2-10.8-1C36.9,86.3,36.1,86.5,35.3,86.8z
	"/>
<path class="st0" d="M25.2,28.8c-0.8,1.4-1.2,3-0.3,4.3c1.2,1.8,0.2,3.7-0.5,4.7c-1.1,1.3-1.3,2.5-1.3,4c0,3.4-1,6.7-0.4,10.1
	c0,0.2,0.1,0.4,0,0.4c-2.2,2-0.2,3.3,0.8,4.8c0.5,0.7,1.2,1.5,0.2,2.2c-0.8,0.6-1.6,0.3-2.2-0.6c-0.3-0.5-0.7-1.2-1.4-0.8
	c-0.7,0.3-0.1,1,0,1.5c0.2,1.3-0.5,1.4-1.5,1.2c-0.6-0.2-1.2-0.3-1.8-0.5c-1.1-2.4-1.2-5.2-2.7-7.5c0-0.6,0-1.2-0.1-1.8
	c0.7-1.7,0.7-3.4,0-5.1c0-0.6,0.1-1.2,0.1-1.8c1.3-1.9,1-4.1,1.2-6.3c0.9-1.4,0.2-3.3,1.6-4.5c1.1-0.3,1.3-1.1,1.2-2.1
	c0.1-0.3,0.2-0.6,0.3-0.8c0.5,0,0.9-0.3,1.1-0.7c0.6-1.2,1.8-1.8,2.8-2.4c2-1.4,1.4,1.8,2.7,1.8C25,28.7,25.1,28.8,25.2,28.8z"/>
<path class="st0" d="M89,30.4c-0.1,0.7-0.5,1.2-1.2,1.5c-0.6-1-1.4-0.5-2.3-0.5c-1.3,0.1-1.8,1.4-3,1.7c-2-2.5-5-3.5-7.5-5.2
	c-2.1-1.4-4.7-1.2-6.8-2.5c-1-0.6-1.9-0.8-3-0.5c-2.1,0.6-4.3,1.6-6.5,0.2c-0.5-0.7-0.9-1.4-1.4,0c-0.6,0-1.3,0-1.9,0
	c-0.1-0.5-0.2-0.9-0.8-0.8c-0.5,0.1-0.5,0.4-0.6,0.8c-0.6,0-1.3,0-1.9,0c-1-2.1-3.2-2-5-2.3c-1.3-0.2-2.4,0.5-2.5,2.1
	c0,0.6,0,1.3-0.8,1.5c-2.1,0.4-2.3,1.9-1.8,3.5c0.5,1.5-0.1,2.3-1.5,2.8c-1.2,0.4-1.8,1.3-2.2,2.5c-1.1,3.6,0.1,7.1,0.7,10.6
	c0.4,2.4,2.8,4.1,2.8,6.8c-1.2,0.3-2.3,0.7-2.4-1.2c-0.1-1.5-1.1-1.5-2.3-1.1c0-0.2,0-0.3,0-0.5c1.6-1.5,1.9-3.1,0.2-4.7
	c-0.5-0.4-0.7-0.8-0.6-1.4c0.4-2.3-0.7-3.4-2.8-3.8c0-1.2,2.9-1.2,1.3-3c-1-1.1-0.7-2.2-0.2-3.2c1.3-2.7,2.7-5.3,5.1-7.2
	c0.6-0.5,1-1.1,1.4-1.7c0.9-1.2,1.4-3.1,3.3-3.1c2.1,0,4.2-0.7,6.3,0.1c0.8,0.3,0.9,1.2,1.8,1.1c3.7-0.6,7.2,1,11,0.3
	c4.7-0.8,9.6,0.7,14.4,0.3c2,2.1,5.4,2.4,6.9,5.6c0.3-2,0.9-3.5-1.2-4.3c-0.7-0.3-0.4-1.1-0.5-1.7c2.5,1.5,3.7,4.1,5.2,6.4
	C88.9,29.9,89,30.2,89,30.4z"/>
<path class="st0" d="M83.6,23.3c0,0.6-0.2,1.4,0.5,1.7c2.1,0.8,1.5,2.4,1.2,4.3c-1.5-3.2-4.8-3.5-6.9-5.6c-1.9-2.6-4.7-1.8-7.3-1.7
	c-4.2,0.1-8.4-0.6-12.6,0.2c-0.1,0-0.3-0.1-0.4-0.1c-2.5-0.4-4.6-2.3-7.3-2.1c0-0.4,0-0.8,0-1.3c0.5,0,0.9-0.1,1.4-0.1
	c1.4,0.8,2.9,0.7,4.3,0.3c5.1-1.1,10.3-0.7,15.4-1.2c4.2-0.4,7.6,2.1,10.7,4.8C82.7,23,83.1,23.2,83.6,23.3L83.6,23.3z"/>
<path class="st0" d="M82.6,33.1c1.1-0.3,1.7-1.6,3-1.7c0.8-0.1,1.7-0.5,2.3,0.5c-2.7,3.4-5.3,6.8-8,10.1c-1.3,1.6-2.1,3.2-2,5.3
	c0.1,2.1-1.1,4.1-0.6,6.2C79,60.3,80.8,67.1,88,70.6c0.5,0.2,1,0.6,0.5,1.3c-0.5,0-1,0-1.5,0c-0.7-0.7-1.4-1.5-2.2-2
	c-3.5-2.6-6.1-5.9-7.1-10.1c-0.4-1.6-1-3-2-4.4c0-1.2-0.1-2.4-0.1-3.6c0.3-3.1-0.2-6.3,0.6-9.4c0.6-0.7,0.7-1.5,0.9-2.3
	c1.6-0.7,1.7-2.6,2.8-3.7C81.6,35.9,82,34.4,82.6,33.1z"/>
<path class="st0" d="M25.2,28.8c-0.1,0-0.1-0.1-0.2-0.1c-1.3,0-0.7-3.2-2.7-1.8c-1,0.7-2.2,1.2-2.8,2.4c-0.2,0.4-0.6,0.7-1.1,0.7
	c3.9-7.6,10.2-11.6,18.6-12.5c4.3-0.4,8.7,0.3,13,0.9c0.2,0,0.3,0,0.5,0c-0.9,0.7-2,0.5-2.9,0.4c-2.7-0.1-5.3,0.1-7.7,1.4
	c-1.1,0.6-1.6-0.8-2.6-0.2c-1.3,0.8-2.9,0.9-4,2.2c-0.6,0.8-1.5,1.9-2.9,0.6c-0.6-0.6-1.2,0.2-1.5,0.9
	C28.1,25.9,26.9,27.6,25.2,28.8z"/>
<path class="st0" d="M35.3,86.8c0.9-0.4,1.6-0.5,2.7-0.2c3.5,1.2,6.9,1.9,10.8,1c2.4-0.6,5.3-0.6,8-0.2c4.5,0.6,9,0.6,13.5-0.2
	c0.6-0.1,1-0.4,1.3-0.9c2.1,0,3.6-1.6,5.5-2c0.2,0.2,0.4,0.4,0.6,0.6c-5.5,3.6-11.5,4.7-17.9,4.1c-2.8-0.3-5.5-0.1-8.3,0.3
	C45.8,90.2,40.4,89.5,35.3,86.8z"/>
<path class="st0" d="M14,52.6c1.5,2.3,1.6,5.1,2.7,7.5c0.4,1.1,0.2,2.3,0.9,3.3c0.4,3.1,2.5,5.5,3.3,8.5c0.5,2.1,1.7,3.8,3.8,4.6
	c0,1.3,1.5,1.3,1.9,2.3c0,0.6,0.3,0.9,0.9,1c1.4,0.6,1.4,1.9,1.5,3.1c-7.2-5.4-11.4-12.8-13.5-21.4C14.7,58.7,13.6,55.7,14,52.6z"/>
<path class="st0" d="M77.6,85c-0.2-0.2-0.4-0.4-0.6-0.6c0.9-2.1,3.2-3.4,3.6-5.8c0-0.2,0.4-0.5,0.7-0.5c2.4-0.7,3.7-2.4,4.2-4.7
	c1,0,1.5-0.4,1.4-1.4c0.5,0,1,0,1.5,0C85.9,77.1,82.9,82,77.6,85z"/>
<path class="st0" d="M50.5,18.6c-0.2,0-0.3,0-0.5,0c0.3-2.7-1.5-6.2-4.1-7.3c-1.1-0.5-1.4-0.8-0.7-1.7c0.6-0.8,1.2-1.4,2.2-0.5
	c2.7,2.6,4.8,5.6,5,9.5c-0.5,0-0.9,0.1-1.4,0.1C50.7,18.6,50.6,18.6,50.5,18.6z"/>
<path class="st0" d="M15.2,37.6c-0.2,2.1,0.2,4.3-1.2,6.3C13.8,41.6,14.2,39.5,15.2,37.6z"/>
<path class="st0" d="M13.9,45.7c0.7,1.7,0.7,3.4,0,5.1C13.2,49.1,13.3,47.4,13.9,45.7z"/>
<path class="st0" d="M18,30.9c0.1,1-0.1,1.8-1.2,2.1C16.9,32.2,17.2,31.4,18,30.9z"/>
<path class="st0" d="M83.5,23.2c-0.5,0-0.8-0.2-0.9-0.7C83.2,22.4,83.5,22.7,83.5,23.2z"/>
<path class="st0" d="M89,30.4c-0.1-0.2-0.1-0.5-0.2-0.7C89.4,29.8,89.7,30,89,30.4z"/>
<path class="st0" d="M85.5,73.3c-0.5,2.3-1.8,4-4.2,4.7c-0.3,0.1-0.7,0.3-0.7,0.5c-0.3,2.5-2.6,3.8-3.6,5.8c-2,0.3-3.5,2-5.5,2
	c-3.7,0.6-7.2-0.6-10.7-1.2c-1.5-0.2-3-1.4-4.7-1.8c-2.8-0.8-5.3-3.3-8.6-1.5c-0.1,0-0.2,0.1-0.2,0.1c-1.7-1.8-4.8-0.8-6.2-3.2
	c-0.9-1.6-2.4-2.5-4-3.5c-3.7-2.2-5.4-6.1-4.7-10.4c0-0.1,0.1-0.2,0-0.2c-1.7-2.5-0.6-4.4,1-6.5c0.5-0.6,1-1.9-0.5-2.5
	c-0.1,0-0.3-0.4-0.2-0.6c1.1-3.4-0.9-6.7-0.2-10.1c0.2-0.8-1.2-1.2-1-1.6c0.6-2.1-0.3-4.1,0.2-6.1c0.4-1.7,1-3.2-0.4-4.7
	c-1-1.1,0.4-2.4,0-3.6c-0.9-2.2,0.5-2.3,2.1-2.7c2.1-0.5,4-1.8,6.3-1.4c0.5,0.1,0.5-0.4,0.6-0.8c1.3-3.7,2.3-4.3,6-3.9
	c1.5,0.2,3.1,0.1,4.6-0.5c2.7-0.3,4.8,1.7,7.3,2.1c0.2,0,0.3,0.2,0.4,0.1c4.2-0.7,8.4-0.1,12.6-0.2c2.6-0.1,5.3-0.9,7.3,1.7
	c-4.8,0.3-9.7-1.1-14.4-0.3c-3.8,0.6-7.3-0.9-11-0.3c-0.9,0.1-1-0.8-1.8-1.1c-2.2-0.7-4.2-0.1-6.3-0.1c-1.9,0-2.4,1.9-3.3,3.1
	c-0.4,0.6-0.8,1.2-1.4,1.7c-2.4,1.9-3.8,4.6-5.1,7.2c-0.5,1-0.8,2.1,0.2,3.2c1.6,1.8-1.2,1.8-1.3,3c-0.9,1.4-0.1,2.6,0.6,3.8
	c1.1,1.9,2.7,3.7,2.7,6.1c0,0.2,0,0.3,0,0.5c1,1.4,2.6,2.6,1.2,4.7c-0.3,0.4,0.3,1.1,1,1.4c2.9,1.3,3.1,1.7,1.8,4.6
	c-0.5,1.2-0.4,1.6,0.6,2.2c0.6,0.3,1.5,0.7,0.2,1.3c-0.4,0.2-0.6,0.8-0.3,0.9c2.1,1,1.4,2.9,1.7,4.5c0.6,2.9,1.7,3.4,4.2,2.3
	c0.8-0.4,2.2-1.2,1.9,1.1c-0.2,1.8,2.8,3.9,4.5,3.3c1.3-0.5,1.5-0.1,1.5,1.1c0,0.6-0.3,1.6,0.8,1.5c0.8-0.1,1.1-1,1-1.6
	c-0.4-1.8,1-2.4,2.1-3.2c0.4-0.3,0.8-0.7,1.2-0.4c0.7,0.4,0.2,1,0,1.4c-0.3,0.6-0.4,1.2,0.4,1.5c0.8,0.3,1.1-0.3,1.4-0.9
	c0.1-0.4,0.2-0.8,0.3-1.1c0.2-1,1-1.1,1.8-1.1c0.7,0,2-0.3,2.1,0.5c0.1,1.7,1.3,2.6,2,3.8c1.7,3,6.7,3.6,8.9,0.8
	c1.8-2.3,3.5-4.7,5.2-7.1C83.9,71.7,85.1,71.8,85.5,73.3z"/>
<path class="st0" d="M24.7,76.6c-2.1-0.9-3.2-2.6-3.8-4.6c-0.8-3-2.9-5.4-3.3-8.5c4-0.1,4-0.1,4.2,4c0,0.5-0.1,1.2,0.4,1.5
	c2,0.9,2.1,3.2,3.4,4.7C26.8,74.7,24.5,75.3,24.7,76.6z"/>
<path class="st0" d="M27.5,79.8c-0.6,0-0.9-0.4-0.9-1C27.2,78.9,27.5,79.2,27.5,79.8z"/>
<path class="st0" d="M75.6,51.8c0,1.2,0.1,2.4,0.1,3.6c-0.3,2.6,1.7,4.7,1.8,7.3c0.1,1.7,0.5,3.1,2.1,4.3c1.5,1.1,1.5,3.1-0.2,4.5
	c-0.5,0.5-0.8,1.7-1.7,1c-1.6-1.3-3.5-1.6-5.3-2.3c-0.7-0.2-1.4-0.3-1.4-1.3c0-1.7-2.2-2.4-1.9-4.2c0-0.2-0.7-0.7-0.9-0.6
	c-1.5,0.8-2.7-0.7-3.4-0.7c-1.9,0.1-2.4-1.2-3.4-1.9c-0.4-0.3-0.7-0.6-1-0.9c-0.9-0.8-1.7-1.2-2,0.6c-0.1,1-0.6,1.2-1.4,0.5
	c-0.3-0.3-0.7-0.5-1-0.2c-1.5,1.7-3.8,0.8-5.6,1.5c-0.9,0.3-2,0.2-2-1.6c0-1.7-2.7-2.6-2.2-4.8c0-0.1-0.2-0.3-0.3-0.3
	c-1.8-0.5-2.6-2.2-3.8-3.4c0-2.6-2.3-4.3-2.8-6.8c-0.6-3.5-1.9-6.9-0.7-10.6c0.4-1.2,1-2.1,2.2-2.5c1.4-0.5,2-1.3,1.5-2.8
	c-0.5-1.7-0.3-3.1,1.8-3.5c0.8-0.2,0.8-0.9,0.8-1.5c0-1.6,1.2-2.3,2.5-2.1c1.8,0.2,4,0.2,5,2.3c-1.2,1.6-2.4,1.8-3.8,0.2
	c-0.3-0.4-0.7-0.7-1-1c-0.3-0.3-0.7-0.6-1.2-0.3c-0.4,0.2-0.6,0.7-0.4,1c1.5,2.7-2.8,5.6,0.2,8.4c0.1,0.1-0.5,0.9-0.7,1.4
	c-0.8,1.9-3.1,3.2-2.4,5.8c-0.8,2.1-0.1,5.1,1.7,6.5c0.7,0.5,1.4,0.7,2.1,0c0.4,0,0.7-0.1,0.9-0.5c0.5,0,0.9,0,1.4,0
	c0.2,0.3,0.5,0.4,0.8,0.3c3.1-0.8,3.6-0.5,4.4,2.6c0.2,0.7,0.3,1.3,1.2,1.2c2.3-0.3,3.8,0.7,5,2.6c0.9,1.5,2.5,1.4,3.9,1.3
	c1.6-0.1,1-1.4,1.2-2.3c0.2-1.2,1.2-1.9,1.9-1.2c1.3,1.2,3.9,1.3,3.9,3.9c0,1.8,2.2,1,3,2.2c1-0.7,0.4-1.7,0.5-2.6
	c0.1-0.5-0.1-1.1-0.3-1.6C74.2,51.9,74.8,51.7,75.6,51.8z"/>
<path class="st0" d="M42,52.7c1.2,1.2,2,2.9,3.8,3.4c0.1,0,0.3,0.2,0.3,0.3c-0.5,2.2,2.1,3.1,2.2,4.8c0,1.8,1.1,1.9,2,1.6
	c1.8-0.7,4,0.2,5.6-1.5c0.3-0.3,0.7-0.1,1,0.2c0.8,0.7,1.3,0.5,1.4-0.5c0.2-1.8,1-1.4,2-0.6c0.3,0.3,0.7,0.7,1,0.9
	c1,0.7,1.5,2,3.4,1.9c0.7,0,1.9,1.5,3.4,0.7c0.2-0.1,0.9,0.4,0.9,0.6c-0.3,1.8,2,2.5,1.9,4.2c0,0.9,0.7,1,1.4,1.3
	c1.8,0.6,3.8,0.9,5.3,2.3c0.9,0.8,1.2-0.4,1.7-1c1.1,0.2,2.3-0.4,3.3,0.5c-1.7,2.4-3.4,4.8-5.2,7.1c-2.2,2.8-7.3,2.1-8.9-0.8
	c-0.7-1.3-1.9-2.1-2-3.8c0-0.8-1.3-0.4-2.1-0.5c-0.8-0.1-1.6,0.1-1.8,1.1c-0.1,0.4-0.1,0.8-0.3,1.1c-0.2,0.6-0.5,1.2-1.4,0.9
	c-0.8-0.3-0.7-0.9-0.4-1.5c0.2-0.4,0.8-1,0-1.4c-0.5-0.3-0.9,0.2-1.2,0.4c-1.1,0.8-2.4,1.4-2.1,3.2c0.1,0.6-0.2,1.6-1,1.6
	c-1.1,0.1-0.8-0.9-0.8-1.5c0-1.1-0.2-1.5-1.5-1.1c-1.7,0.6-4.7-1.5-4.5-3.3c0.3-2.3-1.1-1.5-1.9-1.1c-2.5,1.1-3.6,0.6-4.2-2.3
	c-0.3-1.6,0.4-3.5-1.7-4.5c-0.3-0.1-0.2-0.7,0.3-0.9c1.3-0.6,0.4-1-0.2-1.3c-1.1-0.5-1.2-1-0.6-2.2c1.3-2.9,1.1-3.3-1.8-4.6
	c-0.7-0.3-1.2-1-1-1.4c1.5-2.1-0.2-3.3-1.2-4.7c1.1-0.4,2.2-0.4,2.3,1.1C39.7,53.3,40.8,53,42,52.7z"/>
<path class="st0" d="M42.9,40.5c-0.7-2.6,1.6-3.8,2.4-5.8c0.2-0.5,0.8-1.3,0.7-1.4c-3-2.7,1.3-5.6-0.2-8.4c-0.2-0.3,0.1-0.8,0.4-1
	c0.5-0.3,0.9,0,1.2,0.3c0.3,0.3,0.7,0.6,1,1c1.3,1.6,2.6,1.4,3.8-0.2c0.6,0,1.3,0,1.9,0c0.5,0,0.9,0,1.4,0c0.6,0,1.3,0,1.9,0
	c0.5,0,0.9,0,1.4,0c2.2,1.4,4.4,0.4,6.5-0.2c1.1-0.3,2-0.1,3,0.5c2.1,1.3,4.7,1.1,6.8,2.5c2.5,1.7,5.5,2.8,7.5,5.2
	c-0.6,1.3-1,2.8-2.7,3.2c-0.5-0.6-1.2-0.4-1.9-0.4c0.6-2-0.1-3-2.2-3.2c-0.6-0.1-1.4-0.2-1.7-0.6c-2.1-2.9-5.4-1.8-8.1-2.7
	c-0.2-0.1-0.7,0.2-0.8,0.4c-0.9,2-2.2,1.1-3.1,0.2c-1.7-1.8-3.3-2.1-5.3-0.5c-0.3,0.2-0.7,0.3-1.1,0.3c-4.6,0.7-6.4,2.7-6.4,7.5
	c-0.6,0-1.2,0.1-1.8,0.1c-1,0-1,0.7-0.9,1.4l0,0c-0.8-0.1-1.5,0.1-1.9,0.9C44.4,40.4,43.7,40.6,42.9,40.5z"/>
<path class="st0" d="M37.3,49.9c0-2.4-1.6-4.1-2.7-6.1C34,42.6,33.1,41.5,34,40c2.2,0.3,3.3,1.4,2.8,3.8c-0.1,0.5,0.2,1,0.6,1.4
	C39.3,46.8,38.9,48.4,37.3,49.9z"/>
<path class="st0" d="M55.5,25.1c-0.5,0-0.9,0-1.4,0c0.1-0.4,0.1-0.8,0.6-0.8C55.3,24.2,55.5,24.6,55.5,25.1z"/>
<path class="st0" d="M58.8,25.1c-0.5,0-0.9,0-1.4,0C57.9,23.7,58.4,24.4,58.8,25.1z"/>
<path class="st0" d="M75.6,51.8c-0.8,0-1.4,0.2-1.2,1.2c0.1,0.5,0.3,1.1,0.3,1.6c-0.1,0.9,0.5,1.9-0.5,2.6c-0.7-1.1-2.9-0.4-3-2.2
	c0-2.7-2.6-2.7-3.9-3.9c-0.7-0.7-1.7,0-1.9,1.2c-0.2,0.9,0.5,2.2-1.2,2.3c-1.5,0.1-3,0.2-3.9-1.3c-1.2-1.9-2.7-2.9-5-2.6
	c-0.8,0.1-1-0.5-1.2-1.2c-0.7-3.1-1.2-3.4-4.4-2.6c-0.3,0.1-0.6,0-0.8-0.3c0.5-0.9,1.4-1.5,2.3-1.3c1.9,0.5,3.8,0.2,5.7,0.3
	c2.6,0.1,5.1-0.8,7.8-0.4c0.4,0.1,0.6-0.4,0.6-0.8c0.3-0.3,0.6-0.7,0.9-1c1.3,0.6,2.4,0,3.6-0.4c2-0.6,4.1-1.4,6.2-0.4
	C75.4,45.5,75.8,48.6,75.6,51.8z"/>
<path class="st0" d="M76.1,42.4c-2.2-1-4.2-0.2-6.2,0.4c-1.2,0.4-2.3,1.1-3.6,0.4c0.5-1.5,0.5-3.7,2.8-3.3c1.5,0.2,2-0.4,2.2-1.5
	c0.2-1.3-0.5-2.3-1.8-2.5c-1-0.2-2.1,0-3.2,0c-1.4-1.1-2.7-2.2-4.1-3.4c-1.6-1.3-3.4-1.2-4.8,0.3c-0.5,0.6-1.1,0.8-1.8,0.8
	c-0.8-1.1-1.2-0.1-1.7,0.4c-1.4,1.2-2.1,3.3-4.4,3.3c0-4.7,1.8-6.8,6.4-7.5c0.4-0.1,0.8-0.1,1.1-0.3c1.9-1.6,3.6-1.2,5.3,0.5
	c0.9,0.9,2.1,1.8,3.1-0.2c0.1-0.2,0.6-0.4,0.8-0.4c2.7,1,6-0.2,8.1,2.7c0.3,0.4,1.1,0.5,1.7,0.6c2.1,0.2,2.8,1.2,2.2,3.2
	c-1.3,1.2-0.9,2.7-1,4.1C76.9,40.9,76.8,41.7,76.1,42.4z"/>
<path class="st0" d="M82.7,71.8c-1-0.9-2.2-0.3-3.3-0.5c1.7-1.4,1.7-3.4,0.2-4.5c-1.6-1.2-2.1-2.6-2.1-4.3c-0.1-2.6-2.1-4.6-1.8-7.3
	c0.9,1.3,1.6,2.8,2,4.4c1.1,4.3,3.6,7.5,7.1,10.1c0.8,0.6,1.4,1.4,2.2,2c0,1-0.5,1.4-1.4,1.4C85.1,71.8,83.9,71.7,82.7,71.8z"/>
<path class="st0" d="M77.1,40c0.1-1.4-0.3-3,1-4.1c0.6,0,1.3-0.2,1.9,0.4C78.8,37.4,78.7,39.3,77.1,40z"/>
<path class="st0" d="M65.4,44.2c-0.1,0.4-0.2,0.9-0.6,0.8c-2.6-0.3-5.1,0.5-7.8,0.4c-1.9,0-3.8,0.2-5.7-0.3
	c-0.8-0.2-1.8,0.4-2.3,1.3c-0.5,0-0.9,0-1.4,0c-0.7-0.6-0.8-0.1-0.9,0.5c-0.7,0.7-1.4,0.5-2.1,0c-1.7-1.4-2.5-4.5-1.7-6.5
	c0.8,0,1.5-0.2,1.9-0.9c0.4-0.8,1.1-1,1.9-0.9c0,0.6,0,1.3-0.6,1.7c-1.4,0.9-2.3,2.4-1.3,3.7c1,1.4,3,1.5,4.7,0.8
	c1.8-0.7,3.5-1.1,5.3-0.4c0.6,0.2,1.2,0,1.6-0.2c1.9-1.2,4-0.7,6-0.5C63.3,43.8,64.5,42.8,65.4,44.2z"/>
<path class="st0" d="M46.7,47.1c0.1-0.6,0.2-1.1,0.9-0.5C47.4,46.9,47.1,47.1,46.7,47.1z"/>
<path class="st0" d="M65.4,44.2c-0.8-1.4-2.1-0.4-3.1-0.5c-2-0.2-4-0.7-6,0.5c-0.4,0.2-1,0.4-1.6,0.2c-1.8-0.7-3.5-0.3-5.3,0.4
	c-1.7,0.7-3.7,0.6-4.7-0.8c-0.9-1.3,0-2.8,1.3-3.7c0.6-0.4,0.6-1,0.6-1.7c0,0,0,0,0,0c0.9-0.1,0.9-0.7,0.9-1.4
	c0.6,0,1.2-0.1,1.8-0.1c2.3,0,3-2.1,4.4-3.3c0.6-0.5,0.9-1.4,1.7-0.4c-0.4,1-0.7,2-1.6,2.8c-0.6,0.6-1.8,1-1.4,2.1
	c0.5,1.1,1.5,1.7,2.7,2c2,0.4,3.9,0.6,6,0.5c3.6-0.1,4.6-0.5,5-5.1c1.1,0,2.2-0.2,3.2,0c1.3,0.2,2,1.2,1.8,2.5
	c-0.2,1.2-0.7,1.7-2.2,1.5c-2.3-0.3-2.3,1.9-2.8,3.3C66,43.6,65.7,43.9,65.4,44.2z"/>
<path class="st0" d="M47.6,37.3c0,0.7-0.1,1.3-0.9,1.4C46.7,38,46.7,37.3,47.6,37.3z"/>
<path class="st0" d="M66.3,35.9c-0.3,4.6-1.4,5-5,5.1c-2,0.1-4-0.1-6-0.5c-1.2-0.3-2.3-0.9-2.7-2c-0.5-1.1,0.8-1.6,1.4-2.1
	c0.9-0.8,1.2-1.8,1.6-2.8c0.7-0.1,1.3-0.2,1.8-0.8c1.4-1.5,3.2-1.6,4.8-0.3C63.6,33.6,64.9,34.8,66.3,35.9z"/>
</svg>
